<svg width="20" height="14" viewBox="0 0 20 14" fill="none" xmlns="http://www.w3.org/2000/svg">
<path d="M16.39 4.87031C16.9019 4.36894 17.2 3.68406 17.2 2.95002C17.2 1.46128 15.9889 0.25 14.5 0.25C14.0081 0.25 13.5241 0.385212 13.0999 0.641116C12.9581 0.726828 12.9124 0.911084 12.9979 1.05305C13.0835 1.19501 13.268 1.24025 13.4099 1.155C13.7406 0.955486 14.1174 0.850017 14.5 0.850017C15.6578 0.850017 16.6 1.79207 16.6 2.95002C16.6 3.6631 16.2429 4.32039 15.6435 4.70915C15.1401 5.03934 14.502 5.13454 13.9193 4.96857C13.7617 4.92315 13.5941 5.01515 13.5484 5.17452C13.503 5.33388 13.5953 5.49986 13.7547 5.54542C13.9973 5.61485 14.248 5.65001 14.5 5.65001C14.9717 5.65001 15.4277 5.52134 15.8325 5.28895C17.3726 5.84699 18.4 7.30103 18.4 8.95005V10.4501H15.6644C15.4519 8.44629 14.1913 6.69282 12.3525 5.86021C12.9376 5.26445 13.3 4.4491 13.3 3.55004C13.3 1.73037 11.8196 0.25 9.99995 0.25C8.18032 0.25 6.69991 1.73037 6.69991 3.55004C6.69991 4.44938 7.06245 5.26498 7.64791 5.86081C7.02908 6.14195 6.45515 6.53529 5.96838 7.01929C5.03522 7.95512 4.46737 9.15624 4.33258 10.4501H1.59989V8.95012C1.59989 7.91124 2.00567 6.93171 2.74132 6.19297C3.14629 5.79057 3.63933 5.48358 4.17019 5.29064C4.57509 5.52207 5.0297 5.65004 5.49992 5.65004C5.75188 5.65004 6.00265 5.61489 6.24523 5.54545C6.4046 5.49989 6.49688 5.33392 6.4515 5.17455C6.40579 5.01519 6.2382 4.92332 6.0806 4.96861C5.49816 5.13486 4.86038 5.0398 4.35501 4.70845C3.75706 4.32039 3.39991 3.66314 3.39991 2.95002C3.39991 1.79207 4.3421 0.850017 5.49992 0.850017C5.88252 0.850017 6.2593 0.955486 6.59005 1.155C6.73243 1.24025 6.91613 1.19455 7.00198 1.05305C7.08751 0.911119 7.04181 0.726828 6.90002 0.641116C6.47579 0.385212 5.99183 0.25 5.49992 0.25C4.01104 0.25 2.79989 1.46128 2.79989 2.95002C2.79989 3.68349 3.09749 4.36785 3.60793 4.86876C3.13216 5.08993 2.69274 5.39527 2.31709 5.76842C1.46774 6.62153 0.999878 7.75139 0.999878 8.95008V10.7501C0.999878 10.9158 1.13407 11.0501 1.29987 11.0501H4.29988V13.4501C4.29988 13.6158 4.43407 13.7501 4.59987 13.7501H15.4C15.5658 13.7501 15.7 13.6158 15.7 13.4501V11.0501H18.7C18.8658 11.0501 19 10.9158 19 10.7501V8.95008C19 7.17626 17.9692 5.59829 16.39 4.87031ZM7.29993 3.55004C7.29993 2.0613 8.51107 0.850017 9.99995 0.850017C11.4888 0.850017 12.7 2.0613 12.7 3.55004C12.7 5.03878 11.4888 6.25006 9.99995 6.25006C8.51107 6.25006 7.29993 5.03874 7.29993 3.55004ZM15.1 13.1501H4.8999V11.0501C4.8999 9.68981 5.43016 8.40881 6.39229 7.44377C6.89915 6.93962 7.51361 6.54858 8.17241 6.29559C8.69607 6.64529 9.32438 6.85004 9.99995 6.85004C10.6766 6.85004 11.3061 6.64469 11.8302 6.29394C13.7912 7.04738 15.1 8.93788 15.1 11.0501V13.1501Z" fill="#828282" stroke="#828282" stroke-width="0.4"/>
</svg>
